<?xml version="1.0" encoding="UTF-8" standalone="no"?>
<svg
   xmlns:dc="http://purl.org/dc/elements/1.1/"
   xmlns:cc="http://creativecommons.org/ns#"
   xmlns:rdf="http://www.w3.org/1999/02/22-rdf-syntax-ns#"
   xmlns:svg="http://www.w3.org/2000/svg"
   xmlns="http://www.w3.org/2000/svg"
   xmlns:sodipodi="http://sodipodi.sourceforge.net/DTD/sodipodi-0.dtd"
   xmlns:inkscape="http://www.inkscape.org/namespaces/inkscape"
   width="210mm"
   height="297mm"
   viewBox="0 0 210 297"
   version="1.1"
   id="svg8"
   inkscape:version="1.0.1 (1.0.1+r73)"
   sodipodi:docname="drawing-1.svg">
  <defs
     id="defs2" />
  <sodipodi:namedview
     id="base"
     pagecolor="#ffffff"
     bordercolor="#666666"
     borderopacity="1.0"
     inkscape:pageopacity="0.0"
     inkscape:pageshadow="2"
     inkscape:zoom="1"
     inkscape:cx="-1402.2463"
     inkscape:cy="-720.88261"
     inkscape:document-units="px"
     inkscape:current-layer="layer1"
     inkscape:document-rotation="0"
     showgrid="false"
     showborder="true"
     inkscape:snap-text-baseline="true"
     inkscape:window-width="1853"
     inkscape:window-height="1025"
     inkscape:window-x="67"
     inkscape:window-y="27"
     inkscape:window-maximized="1" />
  <metadata
     id="metadata5">
    <rdf:RDF>
      <cc:Work
         rdf:about="">
        <dc:format>image/svg+xml</dc:format>
        <dc:type
           rdf:resource="http://purl.org/dc/dcmitype/StillImage" />
        <dc:title></dc:title>
      </cc:Work>
    </rdf:RDF>
  </metadata>
  <g
     inkscape:label="Layer 1"
     inkscape:groupmode="layer"
     id="layer1">
    <ellipse
       style="fill:#000000;fill-opacity:0.686813;stroke:#008000;stroke-width:0.150524"
       id="path1546"
       cx="-355.41907"
       cy="-176.34366"
       rx="2.0320833"
       ry="5.1178393" />
    <g
       id="g10"
       inkscape:export-xdpi="96"
       inkscape:export-ydpi="96">
      <path
         id="path490"
         style="font-style:italic;font-variant:normal;font-weight:500;font-stretch:normal;font-size:57.5862px;line-height:1.25;font-family:'URW Chancery L';-inkscape-font-specification:'URW Chancery L, Medium Italic';font-variant-ligatures:normal;font-variant-caps:normal;font-variant-numeric:normal;font-variant-east-asian:normal;fill:#000000;fill-opacity:0.686813;stroke:none;stroke-width:9.53053"
         d="M -1481.3945 -914.30273 L -1483.377 -906.69727 L -1489.957 -902.39648 L -1483.334 -898.16211 L -1481.2793 -890.57617 L -1475.2051 -895.56445 L -1467.3555 -895.17578 L -1470.2227 -902.49414 L -1467.4258 -909.83984 L -1475.2734 -909.37305 L -1481.3945 -914.30273 z M -1578.9277 -910.88086 L -1582.1055 -901.19922 L -1590.9668 -896.16797 L -1582.7402 -890.1543 L -1580.6934 -880.17188 L -1572.4316 -886.13672 L -1562.3047 -885 L -1565.4258 -894.70117 L -1561.2148 -903.97852 L -1571.4043 -904.00977 L -1578.9277 -910.88086 z M -1383.6328 -906.01367 A 12.420561 7.8931362 0 0 0 -1395.9688 -898.11914 A 12.420561 7.8931362 0 0 0 -1383.5488 -890.22656 A 12.420561 7.8931362 0 0 0 -1371.127 -898.11914 A 12.420561 7.8931362 0 0 0 -1383.5488 -906.01367 A 12.420561 7.8931362 0 0 0 -1383.6328 -906.01367 z M -1148.8672 -902.32617 A 5.1149318 9.9489328 0 0 0 -1153.9824 -892.37695 A 5.1149318 9.9489328 0 0 0 -1148.8672 -882.42773 A 5.1149318 9.9489328 0 0 0 -1143.752 -892.37695 A 5.1149318 9.9489328 0 0 0 -1148.8672 -902.32617 z M -1087.9902 -902.16016 A 1.4222805 4.2668417 0 0 0 -1089.3906 -897.89258 A 1.4222805 4.2668417 0 0 0 -1087.9688 -893.62695 A 1.4222805 4.2668417 0 0 0 -1086.5469 -897.89258 A 1.4222805 4.2668417 0 0 0 -1087.9688 -902.16016 A 1.4222805 4.2668417 0 0 0 -1087.9902 -902.16016 z M -1623.748 -898.11719 A 10.413535 10.553245 0 0 0 -1634.1621 -887.56445 A 10.413535 10.553245 0 0 0 -1623.748 -877.00977 A 10.413535 10.553245 0 0 0 -1613.3359 -887.56445 A 10.413535 10.553245 0 0 0 -1623.748 -898.11719 z M -1006.8477 -896.30273 A 2.530607 8.7007827 0 0 0 -1009.3535 -887.60156 A 2.530607 8.7007827 0 0 0 -1006.8223 -878.90039 A 2.530607 8.7007827 0 0 0 -1004.293 -887.60156 A 2.530607 8.7007827 0 0 0 -1006.8223 -896.30273 A 2.530607 8.7007827 0 0 0 -1006.8477 -896.30273 z M -1188.5117 -895.13477 L -1194.5 -889.74609 L -1202.5566 -889.78516 L -1199.2832 -882.42383 L -1201.8066 -874.77344 L -1193.7949 -875.61133 L -1187.3008 -870.84766 L -1185.6211 -878.72461 L -1179.082 -883.42969 L -1186.0566 -887.46094 L -1188.5117 -895.13477 z M -1543.4688 -894.91602 A 5.0327406 5.3215287 0 0 0 -1548.4062 -889.5957 A 5.0327406 5.3215287 0 0 0 -1543.373 -884.27344 A 5.0327406 5.3215287 0 0 0 -1538.3418 -889.5957 A 5.0327406 5.3215287 0 0 0 -1543.373 -894.91602 A 5.0327406 5.3215287 0 0 0 -1543.4688 -894.91602 z M -1268.6582 -890.91211 L -1271.3398 -885.79297 L -1276.7656 -883.80664 L -1272.7266 -879.67578 L -1272.5117 -873.90234 L -1267.3359 -876.4668 L -1261.7773 -874.88477 L -1262.6172 -880.60156 L -1259.3965 -885.39648 L -1265.0918 -886.36523 L -1268.6582 -890.91211 z M -1444.4844 -889.80273 C -1456.5362 -889.80273 -1470.0584 -883.88348 -1481.6211 -875.1875 L -1530.3086 -876.03711 C -1536.0078 -876.13666 -1540.5957 -871.4481 -1540.5957 -865.74805 L -1540.5957 -862.21484 C -1540.5957 -856.51479 -1536.0078 -852.02518 -1530.3086 -851.92578 L -1503.332 -851.45508 C -1504.2354 -849.89796 -1505.0545 -848.33453 -1505.7676 -846.77148 C -1507.652 -849.03351 -1510.5081 -850.47802 -1513.7148 -850.56055 L -1573.9863 -852.11328 C -1579.6845 -852.26004 -1584.2754 -847.52428 -1584.2754 -841.82422 L -1584.2754 -838.29102 C -1584.2754 -832.59096 -1579.6845 -828.1486 -1573.9863 -828.00195 L -1513.7148 -826.44922 C -1511.9482 -826.40372 -1510.2878 -826.82911 -1508.8379 -827.60547 C -1508.4077 -825.03885 -1507.6292 -822.58287 -1506.4492 -820.19727 L -1537.918 -820.5 C -1543.6177 -820.55469 -1548.207 -815.91099 -1548.207 -810.21094 L -1548.207 -806.67773 C -1548.207 -800.97772 -1543.6177 -796.44348 -1537.918 -796.38867 L -1489.3359 -795.92188 C -1486.9417 -795.89892 -1484.7484 -796.71308 -1483.0039 -798.07812 C -1473.6316 -791.51851 -1469.2962 -787.64225 -1467.4766 -783.49219 L -1493.0371 -783.73633 C -1498.7369 -783.79102 -1503.3262 -779.14928 -1503.3262 -773.44922 L -1503.3262 -769.91406 C -1503.3262 -764.21401 -1498.7369 -759.6798 -1493.0371 -759.625 L -1473.7344 -759.43945 C -1480.3262 -752.14883 -1490.219 -746.64062 -1499.1641 -746.64062 C -1507.6954 -746.64062 -1514.2881 -751.13789 -1518.166 -759.38281 C -1520.8805 -765.00433 -1521.6552 -770.62695 -1522.043 -783.36914 C -1526.3087 -780.37099 -1529.4117 -778.49742 -1530.9629 -777.37305 C -1534.0652 -775.49927 -1537.5548 -773.62551 -1541.0449 -771.37695 L -1548.0254 -766.87891 C -1548.4132 -763.50602 -1548.8008 -760.5084 -1548.8008 -758.25977 C -1548.8008 -742.14465 -1537.1662 -730.90039 -1520.1035 -730.90039 C -1508.0821 -730.90039 -1491.4073 -735.77364 -1478.998 -742.51953 C -1470.3743 -747.32231 -1463.0188 -753.02941 -1457.1992 -759.28125 L -1444.4551 -759.16016 C -1438.7553 -759.10547 -1434.166 -763.74916 -1434.166 -769.44922 L -1434.166 -772.98242 C -1434.166 -778.33938 -1438.2202 -782.66398 -1443.4395 -783.21094 C -1442.6002 -786.49897 -1442.1582 -789.81161 -1442.1582 -793.11328 C -1442.1582 -806.97965 -1444.8737 -809.97679 -1466.5898 -823.09375 C -1479.7747 -831.33864 -1485.2031 -838.45913 -1485.2031 -848.20312 C -1485.2031 -849.19124 -1485.129 -850.16922 -1484.998 -851.13477 L -1479.6484 -851.04102 C -1477.9307 -851.01101 -1476.3174 -851.42367 -1474.8965 -852.16016 L -1470.377 -845.36328 L -1471.7422 -836.35352 L -1462.9648 -838.80664 L -1454.8164 -834.72461 L -1454.4375 -843.83008 L -1448.0371 -850.31836 L -1456.5801 -853.49219 L -1460.7734 -861.58594 L -1466.4316 -854.43945 L -1473.1055 -853.33594 C -1470.8149 -855.2298 -1469.3594 -858.1193 -1469.3594 -861.33008 L -1469.3594 -864.86328 C -1469.3594 -866.73482 -1469.8621 -868.47077 -1470.7285 -869.96875 C -1467.6645 -871.38329 -1464.2878 -872.18945 -1460.7715 -872.18945 C -1451.8523 -872.18945 -1445.2618 -868.06578 -1436.7305 -857.57227 C -1423.5457 -869.93964 -1423.5452 -869.93992 -1418.5039 -877.06055 C -1426.2597 -886.05503 -1433.6263 -889.80273 -1444.4844 -889.80273 z M -1120.1387 -889.3457 L -1122.5703 -888.05273 L -1125.2402 -888.72852 L -1124.7598 -886.01758 L -1126.2285 -883.6875 L -1123.502 -883.30469 L -1121.7383 -881.1875 L -1120.5332 -883.66406 L -1117.9766 -884.68555 L -1119.957 -886.59766 L -1120.1387 -889.3457 z M -1513.8555 -889.07227 A 5.1094976 4.8326891 0 0 0 -1518.9648 -884.24023 A 5.1094976 4.8326891 0 0 0 -1513.8555 -879.40625 A 5.1094976 4.8326891 0 0 0 -1508.7461 -884.24023 A 5.1094976 4.8326891 0 0 0 -1513.8555 -889.07227 z M -1290.1797 -888.74219 C -1294.4428 -884.86636 -1296.2379 -883.70333 -1299.6035 -880.99023 C -1301.1742 -879.43991 -1302.9687 -878.27692 -1304.7637 -876.72656 C -1305.6612 -875.95142 -1306.7824 -875.17553 -1307.9043 -874.40039 L -1314.1875 -825.95312 C -1316.2069 -825.56527 -1317.5535 -825.56445 -1318.2266 -825.56445 L -1323.6113 -825.56445 C -1324.0601 -825.56445 -1325.1817 -825.56559 -1326.9766 -825.17773 C -1329.4447 -822.46464 -1329.67 -822.4633 -1333.4844 -817.03711 C -1334.1575 -816.26197 -1335.279 -814.71135 -1336.8496 -812.77344 L -1331.4648 -812.77344 L -1321.1426 -812.77344 L -1316.207 -812.77344 C -1328.0989 -726.72981 -1328.0996 -726.72989 -1328.0996 -714.71484 C -1328.0996 -702.3121 -1323.3862 -688.74805 -1319.123 -688.74805 C -1314.1868 -688.74805 -1298.9307 -705.02573 -1277.3906 -732.93164 L -1276.9414 -742.62109 C -1293.994 -725.17978 -1301.1732 -718.5918 -1304.3145 -718.5918 C -1307.2313 -718.5918 -1310.8223 -728.66934 -1310.8223 -736.80859 C -1310.8223 -742.23475 -1307.0076 -772.07707 -1301.1738 -812.77344 C -1298.0325 -813.16129 -1295.7879 -813.16211 -1294.666 -813.16211 L -1285.6914 -813.55078 C -1284.7939 -813.55078 -1282.551 -813.93797 -1278.9609 -814.71289 L -1270.4336 -825.95312 L -1299.1543 -825.95312 L -1290.1797 -888.74219 z M -1217.6113 -887.59375 C -1223.3126 -887.59375 -1227.1141 -885.60566 -1232.0234 -879.88867 C -1242.159 -868.70316 -1249.285 -857.76507 -1251.3438 -850.55664 C -1252.9274 -845.08816 -1255.9373 -828.68248 -1257.9961 -814.26562 L -1272.0898 -717.07617 C -1270.3478 -718.07045 -1268.7641 -719.06595 -1268.2891 -719.31445 C -1267.3389 -719.81165 -1265.7557 -720.55646 -1264.0137 -721.55078 C -1263.5386 -721.79947 -1262.113 -722.54528 -1260.5293 -723.29102 L -1254.3535 -767.53516 L -1250.7109 -771.01562 L -1241.8418 -738.70312 C -1235.032 -713.34937 -1230.9149 -703.15722 -1224.4219 -695.20312 C -1217.6121 -687.00042 -1207.7919 -681.78125 -1199.3984 -681.78125 C -1192.1135 -681.78125 -1186.8877 -684.26632 -1182.1367 -690.48047 L -1185.3047 -708.37695 C -1190.3725 -694.95438 -1194.9658 -689.73438 -1201.6172 -689.73438 C -1208.427 -689.73438 -1215.2366 -698.18506 -1220.6211 -713.34766 C -1223.7885 -722.79311 -1223.7879 -722.79465 -1241.8418 -782.69922 L -1231.2305 -797.86133 C -1225.0542 -806.56116 -1223.1535 -808.30078 -1220.1445 -808.30078 C -1217.4523 -808.30078 -1215.5534 -806.31166 -1213.0195 -801.0918 L -1204.9414 -819.98438 C -1207.9504 -823.71288 -1210.3265 -824.95508 -1213.8105 -824.95508 C -1217.9281 -824.95508 -1220.7783 -822.71766 -1225.5293 -815.75781 C -1230.5971 -808.3008 -1230.7562 -807.80351 -1232.3398 -805.56641 L -1252.7695 -776.98047 L -1246.752 -815.01172 C -1241.6842 -847.82252 -1239.9422 -855.77648 -1237.25 -862.73633 C -1234.3994 -869.94476 -1230.281 -873.42578 -1224.8965 -873.42578 C -1223.3128 -873.42578 -1222.2041 -873.17719 -1219.3535 -872.43164 L -1213.0195 -886.84766 C -1215.0783 -887.34478 -1216.186 -887.59375 -1217.6113 -887.59375 z M -969.07617 -887.02539 L -970.91797 -882.80273 L -975.11914 -880.91406 L -971.67383 -877.85938 L -971.17578 -873.2793 L -967.20508 -875.61328 L -962.69531 -874.67188 L -963.6875 -879.16992 L -961.39844 -883.16602 L -965.98242 -883.61328 L -969.07617 -887.02539 z M -1381.8535 -882.75586 A 10.182727 14.734015 0 0 0 -1391.9219 -868.02344 A 10.182727 14.734015 0 0 0 -1381.7383 -853.28906 A 10.182727 14.734015 0 0 0 -1371.5566 -868.02344 A 10.182727 14.734015 0 0 0 -1381.7383 -882.75586 A 10.182727 14.734015 0 0 0 -1381.8535 -882.75586 z M -1585.3008 -877.00977 A 11.227736 12.448907 0 0 0 -1596.4434 -864.56055 A 11.227736 12.448907 0 0 0 -1585.2148 -852.11328 A 11.227736 12.448907 0 0 0 -1573.9863 -864.56055 A 11.227736 12.448907 0 0 0 -1585.2148 -877.00977 A 11.227736 12.448907 0 0 0 -1585.3008 -877.00977 z M -927.03125 -876.15039 L -933.47656 -865.97461 L -945.08789 -862.77344 L -937.40234 -853.5 L -937.94727 -841.4668 L -926.75195 -845.91016 L -915.47656 -841.67383 L -916.24219 -853.69531 L -908.72852 -863.10938 L -920.39844 -866.0957 L -927.03125 -876.15039 z M -1042.5527 -875.96094 L -1045.0254 -871.67383 L -1049.7402 -870.16211 L -1046.4258 -866.48438 L -1046.4453 -861.5332 L -1041.9238 -863.54883 L -1037.2227 -862 L -1037.7402 -866.92383 L -1034.8164 -870.91602 L -1039.6582 -871.94531 L -1042.5527 -875.96094 z M -1650.6582 -869.51172 A 10.068199 23.540836 0 0 0 -1660.6309 -845.97266 A 10.068199 23.540836 0 0 0 -1650.5625 -822.43164 A 10.068199 23.540836 0 0 0 -1640.4941 -845.97266 A 10.068199 23.540836 0 0 0 -1650.5625 -869.51172 A 10.068199 23.540836 0 0 0 -1650.6582 -869.51172 z M -1069.1953 -868.02539 A 0.8533683 1.1378243 0 0 0 -1070.0488 -866.88672 A 0.8533683 1.1378243 0 0 0 -1069.1953 -865.75 A 0.8533683 1.1378243 0 0 0 -1068.3418 -866.88672 A 0.8533683 1.1378243 0 0 0 -1069.1953 -868.02539 z M -1130.3203 -867.76562 L -1136.1992 -865.19727 L -1142.2773 -867.24609 L -1141.6504 -860.86133 L -1145.4785 -855.71289 L -1139.2129 -854.33789 L -1135.498 -849.10742 L -1132.2539 -854.64062 L -1126.1309 -856.55469 L -1130.3906 -861.35156 L -1130.3203 -867.76562 z M -1409.3047 -867.14062 L -1412.8008 -860.49805 L -1419.8555 -857.92969 L -1414.6172 -852.55078 L -1414.3535 -845.04883 L -1407.6211 -848.36914 L -1400.4043 -846.30078 L -1401.4805 -853.73047 L -1397.2832 -859.95508 L -1404.6816 -861.22656 L -1409.3047 -867.14062 z M -1324.2812 -865.18164 C -1334.9026 -865.18164 -1342.3368 -860.24827 -1354.1973 -845.67188 C -1364.1106 -833.56223 -1366.4125 -826.83335 -1373.3164 -789.60742 C -1375.0866 -789.83155 -1375.9703 -789.83203 -1376.8555 -789.83203 L -1380.7734 -789.62891 C -1380.0085 -794.51384 -1379.5742 -799.27714 -1379.5742 -803.49414 C -1379.5742 -814.23612 -1384.8697 -821.79492 -1392.4551 -821.79492 C -1395.0204 -821.79492 -1398.2783 -820.62873 -1401.8496 -818.5625 A 17.504279 11.303658 0 0 0 -1399.8965 -823.75 A 17.504279 11.303658 0 0 0 -1417.4004 -835.05273 A 17.504279 11.303658 0 0 0 -1434.9043 -823.75 A 17.504279 11.303658 0 0 0 -1417.4004 -812.44531 A 17.504279 11.303658 0 0 0 -1408.3242 -814.08398 C -1410.8031 -812.10942 -1413.3232 -809.82336 -1415.7832 -807.27344 C -1424.9429 -797.72507 -1431.3828 -777.03732 -1431.3828 -757.34375 C -1431.3828 -745.20927 -1426.517 -737.45117 -1418.9316 -737.45117 C -1414.9243 -737.45117 -1410.9175 -739.4407 -1404.334 -744.21484 C -1397.178 -749.78477 -1392.4551 -754.75706 -1389.8789 -759.53125 C -1386.7976 -765.31291 -1384.0561 -773.63402 -1382.1738 -782.22266 L -1381.2812 -782.20703 C -1380.2191 -782.20703 -1378.2729 -782.20714 -1374.7324 -782.43164 C -1377.5648 -768.75221 -1378.6268 -762.69746 -1381.9902 -743.1875 C -1392.6116 -681.51805 -1396.6835 -671.42578 -1411.7305 -671.42578 C -1414.2088 -671.42578 -1416.3317 -671.65018 -1421.1113 -672.54688 C -1422.8815 -669.18313 -1423.4132 -668.06319 -1424.6523 -666.04492 C -1426.0685 -663.57818 -1427.6619 -661.11095 -1429.0781 -658.41992 C -1425.1836 -657.74717 -1423.2367 -657.52344 -1420.4043 -657.52344 C -1414.5625 -657.52344 -1409.9593 -658.64384 -1407.127 -660.66211 C -1401.9933 -664.25017 -1392.9651 -675.23902 -1388.1855 -683.08789 C -1382.6978 -692.50647 -1376.3254 -711.79223 -1372.2539 -732.19922 C -1364.6419 -768.75235 -1362.6937 -777.94655 -1361.8086 -782.43164 C -1360.2154 -782.20714 -1359.5069 -782.20703 -1358.7988 -782.20703 L -1349.5938 -782.65625 C -1349.0627 -782.65625 -1348.0019 -782.65614 -1346.0547 -782.43164 L -1338.7969 -789.60742 C -1348.0021 -789.83155 -1348.002 -789.83203 -1349.9492 -789.83203 C -1352.0735 -789.83203 -1352.0725 -789.83155 -1360.3926 -789.60742 C -1348.8861 -846.56755 -1346.2315 -853.51953 -1335.7871 -853.51953 C -1332.7777 -853.51953 -1330.4756 -853.07207 -1323.9258 -851.72656 L -1315.7832 -863.83594 C -1319.3237 -864.95721 -1320.7408 -865.18164 -1324.2812 -865.18164 z M -817.02734 -863.99805 L -819.94922 -859.89453 L -824.87109 -858.82031 L -821.87109 -854.77344 L -822.37109 -849.76172 L -817.5957 -851.36328 L -812.98242 -849.33789 L -813.0293 -854.375 L -809.67969 -858.13672 L -814.48438 -859.64844 L -817.02734 -863.99805 z M -1096.4746 -857.19922 L -1096.9766 -850.51172 L -1101.8438 -845.89844 L -1095.6367 -843.35352 L -1092.7539 -837.29883 L -1088.416 -842.41602 L -1081.7676 -843.28711 L -1085.293 -848.99414 L -1084.0664 -855.58789 L -1090.582 -853.99805 L -1096.4746 -857.19922 z M -1622.2305 -852.99219 C -1627.9288 -853.13301 -1632.5195 -848.40318 -1632.5195 -842.70312 L -1632.5195 -839.16992 C -1632.5195 -833.4699 -1627.9288 -829.02184 -1622.2305 -828.88086 L -1606.6035 -828.49609 C -1600.9052 -828.35527 -1596.3145 -833.08315 -1596.3145 -838.7832 L -1596.3145 -842.31836 C -1596.3145 -848.01842 -1600.9052 -852.46645 -1606.6035 -852.60742 L -1622.2305 -852.99219 z M -884.95117 -850.30273 L -887.24805 -836.34961 L -898.32617 -827.5625 L -885.76758 -821.06641 L -880.83398 -807.81445 L -870.77539 -817.75391 L -856.64648 -818.34961 L -862.99023 -830.98633 L -859.19141 -844.60742 L -873.17188 -842.48047 L -884.95117 -850.30273 z M -1179.834 -846.375 L -1180.6543 -843.83203 L -1182.9688 -842.5 L -1180.8047 -840.93555 L -1180.2539 -838.32227 L -1178.0977 -839.89648 L -1175.4414 -839.61133 L -1176.2715 -842.15234 L -1175.1816 -844.58984 L -1177.8516 -844.58398 L -1179.834 -846.375 z M -800.89062 -845.23828 L -805.10156 -838.23047 L -812.92969 -835.875 L -807.56641 -829.70508 L -807.74414 -821.53125 L -800.21875 -824.72461 L -792.50195 -822.03125 L -793.21289 -830.17383 L -788.26562 -836.68164 L -796.23047 -838.52148 L -800.89062 -845.23828 z M -975.64258 -839.77734 A 3.815139 3.8129167 0 0 0 -979.45703 -835.96289 A 3.815139 3.8129167 0 0 0 -975.64258 -832.15039 A 3.815139 3.8129167 0 0 0 -971.82617 -835.96289 A 3.815139 3.8129167 0 0 0 -975.64258 -839.77734 z M -1039.1777 -835.59766 A 8.8181393 4.5512972 0 0 0 -1047.8613 -831.04688 A 8.8181393 4.5512972 0 0 0 -1039.043 -826.49414 A 8.8181393 4.5512972 0 0 0 -1030.2246 -831.04688 A 8.8181393 4.5512972 0 0 0 -1039.043 -835.59766 A 8.8181393 4.5512972 0 0 0 -1039.1777 -835.59766 z M -1105.7402 -828.27344 L -1108.1738 -825.10156 L -1112.1094 -824.38867 L -1109.8438 -821.09375 L -1110.3828 -817.13086 L -1106.5488 -818.26758 L -1102.9473 -816.53125 L -1102.8418 -820.5293 L -1100.0781 -823.41797 L -1103.8477 -824.75195 L -1105.7402 -828.27344 z M -1168.1973 -824.48828 C -1170.1689 -824.48828 -1183.074 -817.01783 -1196.3379 -808.13477 L -1197.4141 -802.88672 C -1185.9426 -808.74147 -1185.2245 -808.94336 -1183.6113 -808.94336 C -1182.3566 -808.94336 -1181.4609 -807.73229 -1181.4609 -806.11719 C -1181.4609 -801.87754 -1184.8666 -785.11984 -1189.3477 -766.74805 L -1193.4707 -750.39648 C -1193.829 -748.98328 -1194.7238 -745.14703 -1195.9785 -739.49414 L -1182.5352 -745.34766 L -1171.9609 -792.79102 C -1149.5557 -808.74013 -1149.0172 -808.94336 -1146.5078 -808.94336 C -1145.2531 -808.94336 -1144.5371 -807.9335 -1144.5371 -806.31836 C -1144.5371 -803.29005 -1145.9699 -795.61865 -1151.168 -772.60352 C -1155.1113 -754.63553 -1155.8281 -751.20303 -1155.8281 -747.36719 C -1155.8281 -744.54074 -1155.1123 -741.91714 -1153.1406 -738.2832 C -1144.8955 -742.52281 -1132.5274 -751.203 -1119.9805 -761.70117 L -1118.7266 -767.35352 C -1136.6508 -755.84595 -1137.3677 -755.44336 -1139.1602 -755.44336 C -1140.9526 -755.44336 -1142.0273 -757.66432 -1142.0273 -760.89453 C -1142.0273 -765.13414 -1140.7728 -771.79636 -1137.3672 -785.72656 C -1128.9428 -819.64366 -1128.9434 -819.64344 -1128.9434 -821.05664 C -1128.9434 -823.27742 -1130.1972 -824.48828 -1132.5273 -824.48828 C -1135.216 -824.48828 -1139.1586 -822.67076 -1145.6113 -818.02734 L -1170.168 -800.86719 C -1168.5548 -807.52947 -1165.8672 -820.24818 -1165.8672 -821.86328 C -1165.8672 -823.27648 -1166.9426 -824.48828 -1168.1973 -824.48828 z M -964.76758 -822.78125 C -968.02685 -821.50211 -969.19924 -820.95502 -973.89258 -818.03125 C -972.58887 -813.28019 -972.19922 -810.17208 -972.19922 -805.23828 C -972.19922 -793.17792 -975.45754 -778.92539 -980.80273 -767.23047 C -985.36568 -757.36292 -992.01515 -749.6875 -996.05664 -749.6875 C -998.66406 -749.6875 -1000.4883 -753.16003 -1000.4883 -758.09375 C -1000.4883 -765.95127 -998.53412 -775.45361 -989.92969 -811.63477 C -993.44967 -809.99014 -994.88283 -809.4415 -999.57617 -807.79688 C -1000.3584 -804.32496 -1000.8804 -801.76767 -1001.2715 -800.12305 C -1005.9649 -778.1951 -1007.2691 -774.17454 -1011.3105 -766.86523 C -1016.2646 -757.72857 -1023.3042 -750.60156 -1027.3457 -750.60156 C -1029.562 -750.60156 -1030.8652 -753.70878 -1030.8652 -758.64258 C -1030.8652 -766.5001 -1028.6484 -776.73336 -1024.998 -786.05273 C -1021.7388 -793.91026 -1018.8711 -799.02673 -1011.5703 -809.25977 L -1011.5703 -811.08789 C -1011.5703 -811.45337 -1011.5708 -811.81787 -1011.7012 -812.54883 L -1013.1348 -812.54883 C -1015.2207 -810.35602 -1016.2642 -809.99023 -1018.4805 -809.99023 C -1022.2612 -809.99023 -1030.0825 -810.17292 -1033.3418 -810.35547 C -1034.7759 -810.5384 -1035.9507 -810.53906 -1036.8633 -810.53906 C -1039.0796 -810.53906 -1040.5127 -809.99004 -1041.2949 -808.71094 C -1043.2505 -805.96995 -1045.8589 -797.56521 -1048.8574 -784.04297 L -1046.6406 -779.65625 C -1044.1636 -788.42744 -1043.5122 -790.80418 -1042.5996 -793.17969 C -1040.5137 -797.93074 -1038.1655 -800.12305 -1034.9062 -800.12305 C -1034.2544 -800.12305 -1032.561 -800.12238 -1030.6055 -799.93945 C -1029.5625 -799.75652 -1028.3882 -799.75781 -1027.2148 -799.75781 C -1024.4771 -799.75781 -1023.5654 -799.93983 -1021.2188 -801.21875 L -1025.6504 -794.27539 C -1031.2563 -785.68694 -1033.081 -782.39742 -1035.4277 -776.36719 C -1038.8174 -767.77874 -1040.9043 -758.09471 -1040.9043 -750.41992 C -1040.9043 -743.84154 -1038.0351 -739.27344 -1033.8633 -739.27344 C -1027.084 -739.27344 -1019.3931 -746.94814 -1008.5723 -764.125 C -1010.0064 -758.0948 -1010.5273 -754.43856 -1010.5273 -749.6875 C -1010.5273 -743.10916 -1007.9209 -739.27344 -1003.4883 -739.27344 C -987.06162 -739.27344 -961.50781 -783.8587 -961.50781 -812.73047 C -961.50781 -817.66426 -962.55126 -820.77118 -964.76758 -822.78125 z M -1074.0312 -821.92969 C -1078.2083 -821.92969 -1084.8917 -816.55748 -1091.0527 -808.40625 C -1097.736 -799.51404 -1102.4336 -780.24844 -1102.4336 -761.9082 C -1102.4336 -750.60764 -1098.8842 -743.38086 -1093.3496 -743.38086 C -1090.4257 -743.38086 -1087.5008 -745.2336 -1082.6973 -749.67969 C -1077.476 -754.86682 -1074.03 -759.49923 -1072.1504 -763.94531 C -1067.9734 -773.94908 -1064.6328 -792.10413 -1064.6328 -804.88672 C -1064.6328 -814.89049 -1068.4967 -821.92969 -1074.0312 -821.92969 z M -1079.4609 -813.22266 C -1075.2839 -813.22266 -1072.6738 -805.9981 -1072.6738 -794.88281 C -1072.6738 -787.10209 -1074.1355 -777.46814 -1076.7461 -768.39062 C -1079.67 -757.83112 -1083.4283 -752.08789 -1087.3965 -752.08789 C -1091.6779 -752.08789 -1094.3926 -758.94244 -1094.3926 -769.50195 C -1094.3926 -790.99152 -1086.7707 -813.22266 -1079.4609 -813.22266 z M -1399.8965 -812.44531 C -1394.1717 -812.44531 -1390.5938 -804.68747 -1390.5938 -792.75195 C -1390.5938 -791.06647 -1390.6979 -789.2832 -1390.8574 -787.45703 L -1394.5586 -784.89844 C -1395.2667 -784.44996 -1396.6834 -783.55284 -1398.0996 -782.43164 L -1393.6738 -782.43164 L -1391.4609 -782.39062 C -1392.3699 -776.538 -1393.9718 -770.30888 -1396.1758 -764.30469 C -1400.1831 -752.96599 -1405.3349 -746.80078 -1410.7734 -746.80078 C -1416.6413 -746.80078 -1420.3633 -754.16127 -1420.3633 -765.5 C -1420.3633 -788.5753 -1409.9148 -812.44531 -1399.8965 -812.44531 z M -910.99609 -812.0918 C -917.14486 -812.0918 -919.99531 -811.45857 -923.89453 -808.92383 C -929.2934 -805.59705 -935.59138 -800.68466 -937.54102 -798.4668 C -943.08989 -791.81317 -949.38867 -770.42773 -949.38867 -757.5957 C -949.38867 -749.99156 -946.98945 -744.92188 -943.24023 -744.92188 C -939.9409 -744.92188 -934.99229 -748.08984 -916.24609 -762.34766 C -917.74573 -755.06031 -918.49414 -750.14907 -918.49414 -748.24805 C -918.49414 -746.18858 -917.59542 -744.92187 -916.0957 -744.92188 C -914.29608 -744.92188 -914.29641 -744.92257 -902.29883 -753.00195 C -897.94969 -756.01193 -894.49963 -758.54669 -888.80078 -762.98242 L -888.65039 -767.57617 C -899.89811 -759.65515 -902.14876 -758.22852 -903.64844 -758.22852 C -904.6982 -758.22852 -905.44727 -759.49741 -905.44727 -761.39844 C -905.44727 -765.51733 -901.84816 -782.94187 -896.44922 -804.01172 C -894.79957 -806.38798 -894.49916 -806.8633 -892.09961 -809.71484 C -899.29821 -811.45747 -904.54739 -812.0918 -910.99609 -812.0918 z M -1581.6562 -810.83008 A 15.585004 20.428225 0 0 0 -1597.2422 -790.40039 A 15.585004 20.428225 0 0 0 -1581.6562 -769.97266 A 15.585004 20.428225 0 0 0 -1566.0723 -790.40039 A 15.585004 20.428225 0 0 0 -1581.6562 -810.83008 z M -1627.332 -809.15234 A 8.2492267 8.0536282 0 0 0 -1635.5801 -801.09766 A 8.2492267 8.0536282 0 0 0 -1627.332 -793.04492 A 8.2492267 8.0536282 0 0 0 -1619.082 -801.09766 A 8.2492267 8.0536282 0 0 0 -1627.332 -809.15234 z M -838.10742 -808.77734 C -847.3498 -808.47536 -849.94184 -808.47461 -851.18164 -808.47461 C -858.05709 -808.32343 -859.97408 -807.87043 -863.35547 -805.15234 C -868.76564 -800.62216 -872.59791 -796.39353 -874.96484 -792.31641 C -878.34624 -786.42715 -882.4043 -768.15674 -882.4043 -758.94531 C -882.4043 -755.17017 -881.72719 -752.45104 -879.92383 -749.12891 L -892.88477 -734.17969 C -898.52038 -727.53543 -901.11328 -722.55245 -901.11328 -718.32422 C -901.11328 -712.73702 -896.15404 -709.56641 -887.58789 -709.56641 C -877.21842 -709.56641 -869.1025 -713.49159 -861.55078 -722.25 C -856.70418 -727.8372 -855.5779 -731.00745 -853.21094 -745.95703 L -847.57617 -779.93359 C -847.12527 -783.25576 -846.5602 -786.12491 -846.10938 -788.54102 L -844.41992 -796.99805 C -844.19428 -798.35709 -843.96814 -799.41428 -843.85547 -800.32031 C -841.82666 -801.07535 -841.71419 -801.07603 -838.10742 -808.77734 z M -919.69531 -804.80469 C -916.99586 -804.80469 -912.34617 -804.01153 -906.94727 -802.74414 C -909.94666 -790.70423 -910.99651 -787.06161 -911.14648 -786.26953 C -912.04631 -782.309 -912.79548 -778.34744 -913.69531 -774.22852 C -913.84498 -773.43644 -914.2951 -771.53712 -915.04492 -768.68555 L -917.89453 -766.625 C -926.74271 -759.81289 -931.24195 -757.12109 -933.94141 -757.12109 C -936.34091 -757.12109 -937.83984 -759.97157 -937.83984 -765.04102 C -937.83984 -772.96204 -935.44062 -783.73374 -931.69141 -792.76367 C -928.09212 -801.47677 -924.79427 -804.80469 -919.69531 -804.80469 z M -803.87891 -804.51172 C -806.6106 -804.51172 -808.59728 -803.93104 -811.45312 -802.42188 C -816.17149 -799.8679 -820.39247 -796.73342 -823 -793.94727 C -827.71836 -788.6071 -831.93945 -775.83882 -831.93945 -766.43555 C -831.93945 -759.58621 -828.09034 -755.28906 -821.75781 -755.28906 C -814.43192 -755.28906 -805.36783 -760.16476 -795.55859 -769.33594 L -795.55859 -772.70312 C -804.87112 -765.15726 -810.83246 -761.90625 -815.55078 -761.90625 C -818.65498 -761.90625 -821.26168 -763.88007 -822.13086 -766.89844 C -822.62753 -768.75585 -822.75195 -770.03374 -822.75195 -773.40039 C -817.16441 -776.6509 -813.43922 -779.08931 -806.11328 -784.19727 C -799.40829 -788.95698 -796.80078 -792.78769 -796.80078 -798.01172 C -796.80078 -802.0749 -799.53305 -804.51172 -803.87891 -804.51172 z M -852.19727 -800.4707 L -849.15234 -800.4707 L -845.54688 -800.4707 C -846.11048 -799.8667 -846.78604 -799.11122 -847.34961 -798.6582 C -850.95641 -795.18508 -851.74534 -793.82728 -852.75977 -790.20312 C -853.77419 -785.82398 -855.01522 -779.93445 -856.48047 -772.53516 C -858.73469 -770.57211 -861.43842 -767.85322 -870.90625 -758.33984 C -872.93506 -761.05793 -873.72461 -763.4755 -873.72461 -767.09961 C -873.72461 -772.23383 -871.01931 -785.37088 -868.65234 -792.61914 C -866.39808 -798.81038 -864.03069 -800.32031 -855.80273 -800.32031 C -855.01376 -800.32031 -853.66251 -800.31952 -852.19727 -800.4707 z M -809.2168 -799.63672 C -807.10593 -799.63672 -805.74023 -797.66315 -805.74023 -794.87695 C -805.74023 -789.07247 -809.09292 -785.59033 -822.37891 -777.58008 C -820.26804 -790.00176 -814.55598 -799.63672 -809.2168 -799.63672 z M -1014.043 -794.74414 L -1016.7637 -793.33203 L -1019.7266 -794.11523 L -1019.2246 -791.09375 L -1020.8848 -788.51758 L -1017.8535 -788.06055 L -1015.918 -785.68555 L -1014.5469 -788.42578 L -1011.6914 -789.53516 L -1013.873 -791.68555 L -1014.043 -794.74414 z M -1292.4141 -791.92578 L -1292.7246 -789.44336 L -1294.623 -787.8125 L -1292.3555 -786.75 L -1291.3926 -784.44141 L -1289.6816 -786.26758 L -1287.1875 -786.4707 L -1288.3965 -788.66211 L -1287.8203 -791.09766 L -1290.2773 -790.625 L -1292.4141 -791.92578 z M -1082.4453 -790.36914 L -1086.5586 -786.08984 L -1092.4785 -785.6875 L -1089.6797 -780.45508 L -1091.125 -774.69922 L -1085.2852 -775.74414 L -1080.2578 -772.58984 L -1079.4453 -778.46875 L -1074.8926 -782.27539 L -1080.2324 -784.86328 L -1082.4453 -790.36914 z M -1649.9805 -786.59375 A 5.8289975 5.4630535 0 0 0 -1655.7285 -781.13086 A 5.8289975 5.4630535 0 0 0 -1649.8984 -775.66797 A 5.8289975 5.4630535 0 0 0 -1644.0703 -781.13086 A 5.8289975 5.4630535 0 0 0 -1649.8984 -786.59375 A 5.8289975 5.4630535 0 0 0 -1649.9805 -786.59375 z M -1197.6406 -771.28906 L -1203.4121 -768.18945 L -1209.7676 -769.77344 L -1208.6035 -763.32617 L -1212.0742 -757.76953 L -1205.582 -756.88672 L -1201.3711 -751.86719 L -1198.5234 -757.76953 L -1192.4512 -760.22266 L -1197.1816 -764.75391 L -1197.6406 -771.28906 z M -857.49414 -767.09961 L -862.33984 -738.55859 C -863.80513 -729.4982 -864.8208 -726.02536 -866.84961 -723.15625 C -869.32928 -719.38111 -873.94961 -717.41797 -880.59961 -717.41797 C -887.92592 -717.41797 -891.87109 -720.13659 -891.87109 -724.96875 C -891.87109 -731.15999 -888.8282 -734.93534 -857.49414 -767.09961 z M -1353.6758 -765.32617 A 3.3383747 4.4769891 0 0 0 -1356.998 -760.84961 A 3.3383747 4.4769891 0 0 0 -1353.6602 -756.37109 A 3.3383747 4.4769891 0 0 0 -1350.3203 -760.84961 A 3.3383747 4.4769891 0 0 0 -1353.6602 -765.32617 A 3.3383747 4.4769891 0 0 0 -1353.6758 -765.32617 z M -1621.1738 -761.74414 C -1626.8736 -761.79883 -1631.4629 -757.1551 -1631.4629 -751.45508 L -1631.4629 -747.92188 C -1631.4629 -742.22186 -1626.8736 -737.68762 -1621.1738 -737.63281 L -1572.5898 -737.16602 C -1566.8901 -737.11136 -1562.3027 -741.75502 -1562.3027 -747.45508 L -1562.3027 -750.98828 C -1562.3027 -756.6883 -1566.8901 -761.22292 -1572.5898 -761.27734 L -1621.1738 -761.74414 z M -1052.959 -756.37891 L -1057.1523 -751.72461 L -1063.3848 -751.0957 L -1060.2539 -745.66992 L -1061.584 -739.54883 L -1055.457 -740.84961 L -1050.0449 -737.69336 L -1049.3887 -743.92383 L -1044.7148 -748.0957 L -1050.4375 -750.64453 L -1052.959 -756.37891 z M -811.48633 -747.83008 L -814.83203 -740.29492 L -822.375 -736.9668 L -816.24414 -731.45703 L -815.41016 -723.25586 L -808.27344 -727.38281 L -800.21484 -725.64258 L -801.93555 -733.70508 L -797.79102 -740.83008 L -805.99023 -741.68555 L -811.48633 -747.83008 z M -974.92383 -744.11914 L -983.83398 -734.06836 L -997.1875 -732.61523 L -990.37891 -721.03516 L -993.125 -707.88477 L -980.00781 -710.78125 L -968.34961 -704.10742 L -967.05078 -717.47656 L -957.10156 -726.50195 L -969.41406 -731.86914 L -974.92383 -744.11914 z M -968.34961 -704.10742 L -968.64648 -702.96094 L -969.63672 -702.3125 L -968.63867 -701.67578 L -968.32812 -700.5332 L -967.41406 -701.28711 L -966.23047 -701.23047 L -966.66406 -702.33203 L -966.24609 -703.43945 L -967.42773 -703.36719 L -968.34961 -704.10742 z M -934.95312 -735.19727 L -938.7793 -732.18555 L -943.63477 -732.52734 L -941.95117 -727.95898 L -943.77734 -723.44531 L -938.91211 -723.63477 L -935.18359 -720.50391 L -933.85938 -725.18945 L -929.73047 -727.76758 L -933.77734 -730.47461 L -934.95312 -735.19727 z M -838 -734.08789 L -838.67383 -731.25 L -841.08008 -729.60156 L -838.58789 -728.08398 L -837.76367 -725.28516 L -835.55078 -727.18555 L -832.63477 -727.10547 L -833.75781 -729.79688 L -832.78125 -732.54688 L -835.6875 -732.30859 L -838 -734.08789 z M -1338.0898 -726.94141 A 7.6803148 6.5424903 0 0 0 -1345.7695 -720.40039 A 7.6803148 6.5424903 0 0 0 -1338.0898 -713.85742 A 7.6803148 6.5424903 0 0 0 -1330.4102 -720.40039 A 7.6803148 6.5424903 0 0 0 -1338.0898 -726.94141 z M -1130.918 -726.07617 L -1132.625 -722.84961 L -1136.0547 -721.60742 L -1133.5137 -718.98828 L -1133.3926 -715.3418 L -1130.1172 -716.94922 L -1126.6113 -715.9375 L -1127.1289 -719.54883 L -1125.082 -722.57031 L -1128.6777 -723.19531 L -1130.918 -726.07617 z M -1412.5996 -723.72266 A 9.6697708 13.369437 0 0 0 -1422.2695 -710.35352 A 9.6697708 13.369437 0 0 0 -1412.5996 -696.98438 A 9.6697708 13.369437 0 0 0 -1402.9297 -710.35352 A 9.6697708 13.369437 0 0 0 -1412.5996 -723.72266 z M -1583.1738 -723.46875 A 17.225368 14.110613 0 0 0 -1600.3555 -709.35742 A 17.225368 14.110613 0 0 0 -1583.1289 -695.24805 A 17.225368 14.110613 0 0 0 -1565.9043 -709.35742 A 17.225368 14.110613 0 0 0 -1583.1289 -723.46875 A 17.225368 14.110613 0 0 0 -1583.1738 -723.46875 z M -1453.8789 -723.06055 A 10.805982 12.696892 0 0 0 -1464.6484 -710.36328 A 10.805982 12.696892 0 0 0 -1453.8418 -697.66602 A 10.805982 12.696892 0 0 0 -1443.0352 -710.36328 A 10.805982 12.696892 0 0 0 -1453.8418 -723.06055 A 10.805982 12.696892 0 0 0 -1453.8789 -723.06055 z M -1537.6992 -718.84961 C -1543.399 -718.9043 -1547.9883 -714.2606 -1547.9883 -708.56055 L -1547.9883 -705.02734 C -1547.9883 -699.32729 -1543.399 -694.79308 -1537.6992 -694.73828 L -1489.1172 -694.27148 C -1483.4174 -694.21683 -1478.8281 -698.86049 -1478.8281 -704.56055 L -1478.8281 -708.09375 C -1478.8281 -713.79381 -1483.4174 -718.32839 -1489.1172 -718.38281 L -1537.6992 -718.84961 z M -1155.0332 -718.40625 A 14.682164 14.354182 0 0 0 -1169.6562 -704.05273 A 14.682164 14.354182 0 0 0 -1154.9746 -689.69922 A 14.682164 14.354182 0 0 0 -1140.293 -704.05273 A 14.682164 14.354182 0 0 0 -1154.9746 -718.40625 A 14.682164 14.354182 0 0 0 -1155.0332 -718.40625 z M -858.33008 -712.91406 L -860.19922 -706.81055 L -865.68555 -703.55078 L -860.46094 -699.88672 L -859.05469 -693.66016 L -853.95508 -697.49805 L -847.59961 -696.91016 L -849.67383 -702.94727 L -847.15039 -708.81055 L -853.5332 -708.70312 L -858.33008 -712.91406 z M -1057.8516 -711.82227 L -1063.4492 -707.79883 L -1070.2988 -708.58203 L -1068.2012 -702.01562 L -1071.0625 -695.74414 L -1064.1699 -695.70898 L -1059.0898 -691.04883 L -1056.9258 -697.59375 L -1050.9238 -700.98633 L -1056.4805 -705.06641 L -1057.8516 -711.82227 z M -1632.3496 -709.55273 A 12.800525 11.378244 0 0 0 -1645.1484 -698.17383 A 12.800525 11.378244 0 0 0 -1632.3477 -686.79492 A 12.800525 11.378244 0 0 0 -1619.5469 -698.17383 A 12.800525 11.378244 0 0 0 -1632.3477 -709.55273 A 12.800525 11.378244 0 0 1 -1632.3496 -709.55273 z M -918.86719 -706.67773 L -925.15234 -694.99023 L -937.66016 -690.56055 L -928.48633 -680.97266 L -928.13867 -667.70703 L -916.18555 -673.4707 L -903.46289 -669.70117 L -905.25 -682.84961 L -897.73242 -693.78516 L -910.79102 -696.14844 L -918.86719 -706.67773 z M -1019.6504 -704.16406 L -1019.7891 -700.125 L -1022.6055 -697.22852 L -1018.8086 -695.84766 L -1016.9238 -692.27344 L -1014.4375 -695.45898 L -1010.4551 -696.14648 L -1012.7168 -699.49609 L -1012.1387 -703.49609 L -1016.0234 -702.37891 L -1019.6504 -704.16406 z M -1243.5742 -699.38672 L -1247.6172 -697.46484 L -1251.9004 -698.75977 L -1251.3223 -694.32227 L -1253.877 -690.64648 L -1249.4785 -689.82617 L -1246.7734 -686.25977 L -1244.6328 -690.19141 L -1240.4062 -691.66211 L -1243.4824 -694.91211 L -1243.5742 -699.38672 z M -1594.5996 -693.04883 L -1600.5098 -687.10742 L -1608.877 -686.68164 L -1605.0547 -679.22656 L -1607.2344 -671.13672 L -1598.9629 -672.46875 L -1591.9434 -667.89453 L -1590.6543 -676.17383 L -1584.1348 -681.4375 L -1591.6094 -685.2207 L -1594.5996 -693.04883 z M -792.54883 -688.53125 A 4.9601684 4.1533126 0 0 0 -797.50977 -684.37695 A 4.9601684 4.1533126 0 0 0 -792.54883 -680.22461 A 4.9601684 4.1533126 0 0 0 -787.58984 -684.37695 A 4.9601684 4.1533126 0 0 0 -792.54883 -688.53125 z M -1511.0059 -687.12891 A 13.565105 10.285561 0 0 0 -1524.5703 -676.84375 A 13.565105 10.285561 0 0 0 -1511.0059 -666.55859 A 13.565105 10.285561 0 0 0 -1497.4395 -676.84375 A 13.565105 10.285561 0 0 0 -1511.0059 -687.12891 z M -1113.3496 -684.60742 L -1118.7461 -678.67969 L -1126.7285 -677.91992 L -1122.7578 -670.95312 L -1124.502 -663.12891 L -1116.6504 -664.75195 L -1109.7461 -660.67578 L -1108.8652 -668.64453 L -1102.8555 -673.95117 L -1110.1602 -677.25195 L -1113.3496 -684.60742 z M -1548.9863 -684.46875 L -1549.5664 -681.82617 L -1551.7734 -680.25781 L -1549.4395 -678.89062 L -1548.6309 -676.30664 L -1546.6074 -678.10352 L -1543.9004 -678.07422 L -1544.9844 -680.55469 L -1544.1211 -683.11914 L -1546.8145 -682.85352 L -1548.9863 -684.46875 z M -971.7832 -680.72852 A 6.8269462 4.8357536 0 0 0 -978.60938 -675.89258 A 6.8269462 4.8357536 0 0 0 -971.7832 -671.05664 A 6.8269462 4.8357536 0 0 0 -964.95703 -675.89258 A 6.8269462 4.8357536 0 0 0 -971.7832 -680.72852 z M -1154.834 -675.59961 A 0.85953173 6.4264089 0 0 0 -1155.6934 -669.17188 A 0.85953173 6.4264089 0 0 0 -1154.834 -662.74609 A 0.85953173 6.4264089 0 0 0 -1153.9727 -669.17188 A 0.85953173 6.4264089 0 0 0 -1154.834 -675.59961 z M -1274.3613 -669.80859 L -1277.9355 -667.78711 L -1281.9395 -668.69141 L -1281.1211 -664.66797 L -1283.2207 -661.13867 L -1279.1406 -660.67383 L -1276.4336 -657.58789 L -1274.7305 -661.32422 L -1270.957 -662.94531 L -1273.9844 -665.71875 L -1274.3613 -669.80859 z M -1229.9414 -663.84766 L -1230.1055 -660.67578 L -1232.3594 -658.4375 L -1229.3926 -657.30078 L -1227.959 -654.46484 L -1225.9629 -656.93555 L -1222.8223 -657.42188 L -1224.5547 -660.08594 L -1224.0469 -663.2207 L -1227.1152 -662.39648 L -1229.9414 -663.84766 z "
         transform="scale(0.26458333)" />
    </g>
  </g>
</svg>
